<svg width="20" height="20" viewBox="0 0 20 20" fill="none" xmlns="http://www.w3.org/2000/svg">
<g clip-path="url(#clip0_234_2701)">
<path d="M12.0117 10.8333L17.6326 16.4541C18.9753 14.8691 19.7886 12.9036 19.9584 10.8333H12.0117Z" fill="#C1CAD0"/>
<path d="M9.41084 10.5892L9.16668 10.3451V0.041748C7.59651 0.170417 6.07897 0.668247 4.7377 1.49467C3.39643 2.32109 2.2694 3.45272 1.44844 4.79734C0.627489 6.14196 0.135841 7.66152 0.0135657 9.2322C-0.10871 10.8029 0.141846 12.3802 0.744816 13.8357C1.34779 15.2912 2.28611 16.5836 3.48332 17.6076C4.68053 18.6317 6.10275 19.3583 7.63408 19.7285C9.16542 20.0986 10.7625 20.1017 12.2953 19.7374C13.828 19.3732 15.253 18.652 16.4542 17.6326L9.41084 10.5892Z" fill="#C1CAD0"/>
<path d="M10.834 9.16675H19.959C19.7623 6.81248 18.7377 4.60406 17.0672 2.93354C15.3967 1.26302 13.1883 0.238463 10.834 0.041748V9.16675Z" fill="#C1CAD0"/>
</g>
<defs>
<clipPath id="clip0_234_2701">
<rect width="20" height="20" fill="white"/>
</clipPath>
</defs>
</svg>
