<svg width="24" height="24" viewBox="0 0 24 24" fill="none" xmlns="http://www.w3.org/2000/svg">
<g clip-path="url(#clip0_234_3389)">
<path d="M12 13.9995C11.2044 13.9995 10.4413 14.3156 9.87868 14.8782C9.31607 15.4408 9 16.2039 9 16.9995V24.0255H15V16.9995C15 16.2039 14.6839 15.4408 14.1213 14.8782C13.5587 14.3156 12.7956 13.9995 12 13.9995Z" fill="#71717A"/>
<path d="M13.338 0.833299C12.9707 0.502736 12.4941 0.319824 12 0.319824C11.5059 0.319824 11.0293 0.502736 10.662 0.833299L0 10.4293V20.8293C0 21.678 0.337142 22.4919 0.937258 23.092C1.53737 23.6922 2.35131 24.0293 3.2 24.0293H7V17.0003C7 15.6742 7.52678 14.4024 8.46447 13.4648C9.40215 12.5271 10.6739 12.0003 12 12.0003C13.3261 12.0003 14.5979 12.5271 15.5355 13.4648C16.4732 14.4024 17 15.6742 17 17.0003V24.0263H20.8C21.6487 24.0263 22.4626 23.6892 23.0627 23.089C23.6629 22.4889 24 21.675 24 20.8263V10.4263L13.338 0.833299Z" fill="#71717A"/>
</g>
<defs>
<clipPath id="clip0_234_3389">
<rect width="24" height="24" fill="white"/>
</clipPath>
</defs>
</svg>
