<svg width="25" height="24" viewBox="0 0 25 24" fill="none" xmlns="http://www.w3.org/2000/svg">
<g clip-path="url(#clip0_234_3390)">
<path d="M23.8713 7.12186L21.4573 4.70686L23.4573 2.70686L22.0433 1.29286L20.0433 3.29286L17.6293 0.878859C17.3508 0.60023 17.02 0.379206 16.656 0.22841C16.292 0.0776141 15.9018 0 15.5078 0C15.1138 0 14.7237 0.0776141 14.3597 0.22841C13.9957 0.379206 13.6649 0.60023 13.3863 0.878859L10.5583 3.70686L15.0933 8.24286L8.99334 14.3429L4.45734 9.80786L1.62934 12.6359C1.06692 13.1984 0.750977 13.9614 0.750977 14.7569C0.750977 15.5524 1.06692 16.3153 1.62934 16.8779L4.04334 19.2929L2.04334 21.2929L3.45734 22.7069L5.45734 20.7069L7.87134 23.1209C8.14992 23.3995 8.48066 23.6205 8.84467 23.7713C9.20868 23.9221 9.59883 23.9997 9.99284 23.9997C10.3868 23.9997 10.777 23.9221 11.141 23.7713C11.505 23.6205 11.8358 23.3995 12.1143 23.1209L14.9423 20.2929L10.4073 15.7569L16.5073 9.65686L21.0423 14.1919L23.8703 11.3639C24.4328 10.8013 24.7487 10.0384 24.7487 9.24286C24.7487 8.44737 24.4328 7.68444 23.8703 7.12186H23.8713Z" fill="#71717A"/>
</g>
<defs>
<clipPath id="clip0_234_3390">
<rect width="24" height="24" fill="white" transform="translate(0.75)"/>
</clipPath>
</defs>
</svg>
