<svg width="25" height="24" viewBox="0 0 25 24" fill="none" xmlns="http://www.w3.org/2000/svg">
<g clip-path="url(#clip0_234_3391)">
<path d="M12.5 0C10.1266 0 7.80655 0.703788 5.83316 2.02236C3.85977 3.34094 2.3217 5.21509 1.41345 7.4078C0.505199 9.60051 0.267559 12.0133 0.730582 14.3411C1.1936 16.6689 2.33649 18.8071 4.01472 20.4853C5.69295 22.1635 7.83115 23.3064 10.1589 23.7694C12.4867 24.2324 14.8995 23.9948 17.0922 23.0866C19.2849 22.1783 21.1591 20.6402 22.4776 18.6668C23.7962 16.6935 24.5 14.3734 24.5 12C24.4966 8.81846 23.2312 5.76821 20.9815 3.51852C18.7318 1.26883 15.6815 0.00344108 12.5 0V0ZM17.5 13H13.5V17H11.5V13H7.50001V11H11.5V7H13.5V11H17.5V13Z" fill="#A1A1AA"/>
</g>
<defs>
<clipPath id="clip0_234_3391">
<rect width="24" height="24" fill="white" transform="translate(0.5)"/>
</clipPath>
</defs>
</svg>
