<svg width="20" height="20" viewBox="0 0 20 20" fill="none" xmlns="http://www.w3.org/2000/svg">
<g clip-path="url(#clip0_234_3183)">
<path d="M10 1.66667C11.1079 1.66877 12.2043 1.89084 13.2257 2.31999C14.2471 2.74915 15.1731 3.37684 15.95 4.16667H12.5V5.83333H16.7858C17.1961 5.83289 17.5895 5.66971 17.8796 5.37959C18.1697 5.08948 18.3329 4.69612 18.3333 4.28583V0H16.6667V2.55C15.228 1.26325 13.4478 0.420332 11.5407 0.122959C9.63362 -0.174414 7.68123 0.0864682 5.91914 0.874123C4.15705 1.66178 2.66055 2.94255 1.61024 4.56187C0.559929 6.1812 0.000687 8.06988 0 10H1.66667C1.66909 7.79061 2.54785 5.6724 4.11012 4.11012C5.6724 2.54785 7.79061 1.66909 10 1.66667Z" fill="#C1CAD0"/>
<path d="M18.3337 10C18.3334 11.655 17.8404 13.2725 16.9174 14.6463C15.9944 16.02 14.6832 17.0878 13.151 17.7135C11.6189 18.3393 9.93507 18.4946 8.31427 18.1598C6.69347 17.8249 5.20909 17.015 4.05033 15.8333H7.50033V14.1667H3.21449C2.80421 14.1671 2.41085 14.3303 2.12073 14.6204C1.83061 14.9105 1.66743 15.3039 1.66699 15.7142V20H3.33366V17.45C4.77229 18.7367 6.55255 19.5797 8.45963 19.877C10.3667 20.1744 12.3191 19.9135 14.0812 19.1259C15.8433 18.3382 17.3398 17.0575 18.3901 15.4381C19.4404 13.8188 19.9996 11.9301 20.0003 10H18.3337Z" fill="#C1CAD0"/>
</g>
<defs>
<clipPath id="clip0_234_3183">
<rect width="20" height="20" fill="white"/>
</clipPath>
</defs>
</svg>
